<?xml version="1.0" standalone="no"?>
<!DOCTYPE svg PUBLIC "-//W3C//DTD SVG 1.1//EN" "http://www.w3.org/Graphics/SVG/1.1/DTD/svg11.dtd">
<svg xmlns="http://www.w3.org/2000/svg" xmlns:xlink="http://www.w3.org/1999/xlink" version="1.1" x="0px" y="0px" viewBox="0 0 2000 2000" style="enable-background:new 0 0 2000 2000;" xml:space="preserve" width="2000" height="2000">
<g id="Layer_1">
	<g>
		<g>
			<polygon points="391.5,1675.4 679.2,1439.8 679.2,553 391.5,318    "/>
			<path d="M1325,405.9c-163.9-121.4-342.7-143.5-548.4-143.5H438.8L742,509.9h25.7c97.5,0,243.4,9,363,97.5     c117.2,88.5,181.2,239.2,181.2,393.5c0,157.3-66.4,307.4-183.6,391.7c-128.6,92.7-287.6,97.5-360.6,97.5H733l-303.2,247.6h342.1     c205.7,0,367.2-19.7,540-141.7c194.9-136.9,296.6-349.8,296.6-595C1608.5,755.7,1504.4,541,1325,405.9z"/>
		</g>
	</g>
</g>
<g id="Layer_2">
</g>
</svg>